<svg width="60" height="60" viewBox="0 0 60 60" fill="none" xmlns="http://www.w3.org/2000/svg">
<path d="M59.5303 15.4742C59.2557 10.7826 56.9697 6.40883 53.254 3.47213C47.5888 -1.00654 39.2661 -1.16824 33.4553 3.0787C29.8769 5.69262 27.5909 9.44101 26.8882 13.7121C19.4596 10.0688 12.6556 10.1281 8.69698 14.0624C5.00815 17.7542 4.72547 23.9949 7.76802 31.0045C6.57519 31.6755 5.46591 32.492 4.47505 33.4864C1.58862 36.3752 0 40.2125 0 44.2923C0 48.3721 1.58862 52.2097 4.47505 55.0981C7.45301 58.0785 11.3599 59.566 15.2722 59.566C19.1844 59.566 23.0943 58.0758 26.0693 55.0981C27.0629 54.1065 27.8787 52.9935 28.5492 51.8025C31.7129 53.1768 34.7259 53.9044 37.408 53.9044C40.6607 53.9044 43.4393 52.8939 45.459 50.8729C49.3955 46.9332 49.4682 40.1318 45.8386 32.6725C49.1989 32.1092 52.3142 30.5274 54.743 28.0941C58.0656 24.7688 59.8104 20.1718 59.5384 15.4774L59.5303 15.4742ZM23.019 52.0475C18.7486 56.3213 11.7938 56.324 7.51815 52.0475C5.44488 49.9725 4.3032 47.2185 4.3032 44.2921C4.3032 41.3658 5.44482 38.6116 7.51815 36.5368C8.1886 35.8658 8.9452 35.3349 9.73954 34.8687C11.4789 37.8168 13.6922 40.6948 16.2771 43.2843C18.8673 45.8739 21.7457 48.0889 24.6858 49.8271C24.2227 50.622 23.6896 51.3793 23.0218 52.0503L23.019 52.0475ZM42.4055 47.8221C39.7991 50.4279 34.4675 50.1261 28.4955 47.0406C25.3102 45.4049 22.1356 43.0497 19.3196 40.2337C16.5086 37.4177 14.1579 34.2433 12.5182 31.0449C9.42977 25.0572 9.13089 19.7216 11.7373 17.1133C14.4057 14.4536 20.0358 14.9171 26.0244 18.1265C25.3701 20.2015 24.3173 22.0555 22.8364 23.5376L19.6511 26.7282C18.8083 27.5717 18.8083 28.9325 19.6511 29.776L29.7699 39.903C30.19 40.3234 30.742 40.5336 31.2939 40.5336C31.8458 40.5336 32.3979 40.3234 32.8179 39.903L36.0058 36.7124C37.5837 35.1333 39.4308 34.0339 41.3586 33.4222C44.6058 39.4799 45.0797 45.1497 42.4087 47.8201L42.4055 47.8221ZM43.8056 28.5766C39.8636 28.8002 36.0103 30.6084 32.9547 33.6669L31.2906 35.3323L24.2199 28.2558L25.8839 26.5904C28.7784 23.6963 30.5958 19.6809 31.0051 15.2886C31.3309 11.7746 33.1027 8.67569 35.9945 6.56329C40.2729 3.43198 46.4063 3.55863 50.58 6.85702C53.3722 9.064 55.0227 12.2141 55.2273 15.7278C55.4293 19.1933 54.1396 22.5913 51.6866 25.0464C49.581 27.1537 46.7811 28.4095 43.8056 28.5766ZM49.6753 9.85603C53.3049 13.4885 53.3049 19.4008 49.6753 23.0309C49.2553 23.4512 48.7033 23.6614 48.1514 23.6614C47.5994 23.6614 47.0474 23.4512 46.6274 23.0309C45.7846 22.1874 45.7846 20.8266 46.6274 19.9831C48.5768 18.0321 48.5768 14.8577 46.6274 12.9066C45.7846 12.0631 45.7846 10.6996 46.6274 9.85879C47.4702 9.01531 48.8299 9.01531 49.6727 9.85879L49.6753 9.85603Z" fill="#092E4A"/>
</svg>
