<svg width="323" height="581" viewBox="0 0 323 581" fill="none" xmlns="http://www.w3.org/2000/svg">
<path d="M33 581C193.163 581 323 450.939 323 290.5C323 130.061 193.163 0 33 0C-127.163 0 -257 130.061 -257 290.5C-257 450.939 -127.163 581 33 581Z" fill="#FCD6A5"/>
<path d="M33.0007 493.809C145.091 493.809 235.958 402.785 235.958 290.501C235.958 178.217 145.091 87.1934 33.0007 87.1934C-79.0898 87.1934 -169.957 178.217 -169.957 290.501C-169.957 402.785 -79.0898 493.809 33.0007 493.809Z" fill="#EF9849"/>
<path d="M32.9975 409.475C98.5929 409.475 151.768 356.208 151.768 290.499C151.768 224.791 98.5929 171.523 32.9975 171.523C-32.5979 171.523 -85.7734 224.791 -85.7734 290.499C-85.7734 356.208 -32.5979 409.475 32.9975 409.475Z" fill="#D95F3B"/>
</svg>
