<svg width="353" height="581" viewBox="0 0 353 581" fill="none" xmlns="http://www.w3.org/2000/svg">
<path d="M290 581C450.163 581 580 450.939 580 290.5C580 130.061 450.163 0 290 0C129.837 0 0 130.061 0 290.5C0 450.939 129.837 581 290 581Z" fill="#FCD6A5"/>
<path d="M290.001 493.809C402.091 493.809 492.958 402.785 492.958 290.501C492.958 178.217 402.091 87.1934 290.001 87.1934C177.91 87.1934 87.043 178.217 87.043 290.501C87.043 402.785 177.91 493.809 290.001 493.809Z" fill="#EF9849"/>
<path d="M289.997 409.475C355.593 409.475 408.768 356.208 408.768 290.499C408.768 224.791 355.593 171.523 289.997 171.523C224.402 171.523 171.227 224.791 171.227 290.499C171.227 356.208 224.402 409.475 289.997 409.475Z" fill="#D95F3B"/>
</svg>
