<svg width="39" height="38" viewBox="0 0 39 38" fill="none" xmlns="http://www.w3.org/2000/svg">
<path d="M19.351 37.8955C30.0382 37.8955 38.702 29.4123 38.702 18.9477C38.702 8.48319 30.0382 0 19.351 0C8.66373 0 0 8.48319 0 18.9477C0 29.4123 8.66373 37.8955 19.351 37.8955Z" fill="#FCD6A5"/>
<path d="M19.3515 32.2085C26.831 32.2085 32.8943 26.2715 32.8943 18.9478C32.8943 11.6242 26.831 5.68719 19.3515 5.68719C11.8719 5.68719 5.80859 11.6242 5.80859 18.9478C5.80859 26.2715 11.8719 32.2085 19.3515 32.2085Z" fill="#EF9849"/>
<path d="M19.3511 26.7078C23.7281 26.7078 27.2764 23.2334 27.2764 18.9476C27.2764 14.6618 23.7281 11.1875 19.3511 11.1875C14.9741 11.1875 11.4258 14.6618 11.4258 18.9476C11.4258 23.2334 14.9741 26.7078 19.3511 26.7078Z" fill="#D95F3B"/>
</svg>
